PathFileType	4	(X/Y/Z)	C:\Users\Basilio\Documents\Thesis Gigler\squatting_fais\c3dfiles\054\SLS_front_pre3\markers_experimental.trc
DataRate	CameraRate	NumFrames	NumMarkers	Units	OrigDataRate	OrigDataStartFrame	OrigNumFrames
200.000000	200.000000	4	61	mm	200.000000	0	1423
Frame#	Time	FHD			LBHD			RBHD			C7			T10			CLAV			LSHO			LUUPA			LMUPA			LDUPA			LLEP			LMEP			LRAD			LUL			LRFIN			RSHO			RUPA1			RMUPA			RDUPA			RLEP			RMEP			RRAD			RUL			RUFIN			LASI			RASI			USACR			LSACR			RSACR			LTHI1			LTHI2			LTHI3			LTHI4			LLFC			LMFC			LTIB1			LTIB2			LTIB3			LTIB4			LLMAL			LMMAL			LHEE			LMT1			LMT2			LMT5			RTHI			RTHI2			RTHI3			RTHI4			RLFC			RMFC			RTIB1			RTIB2			RTIB3			RTIB4			RLMAL			RMMAL			RHEE			RMT1			RMT2			RMT5			
		X1	Y1	Z1	X2	Y2	Z2	X3	Y3	Z3	X4	Y4	Z4	X5	Y5	Z5	X6	Y6	Z6	X7	Y7	Z7	X8	Y8	Z8	X9	Y9	Z9	X10	Y10	Z10	X11	Y11	Z11	X12	Y12	Z12	X13	Y13	Z13	X14	Y14	Z14	X15	Y15	Z15	X16	Y16	Z16	X17	Y17	Z17	X18	Y18	Z18	X19	Y19	Z19	X20	Y20	Z20	X21	Y21	Z21	X22	Y22	Z22	X23	Y23	Z23	X24	Y24	Z24	X25	Y25	Z25	X26	Y26	Z26	X27	Y27	Z27	X28	Y28	Z28	X29	Y29	Z29	X30	Y30	Z30	X31	Y31	Z31	X32	Y32	Z32	X33	Y33	Z33	X34	Y34	Z34	X35	Y35	Z35	X36	Y36	Z36	X37	Y37	Z37	X38	Y38	Z38	X39	Y39	Z39	X40	Y40	Z40	X41	Y41	Z41	X42	Y42	Z42	X43	Y43	Z43	X44	Y44	Z44	X45	Y45	Z45	X46	Y46	Z46	X47	Y47	Z47	X48	Y48	Z48	X49	Y49	Z49	X50	Y50	Z50	X51	Y51	Z51	X52	Y52	Z52	X53	Y53	Z53	X54	Y54	Z54	X55	Y55	Z55	X56	Y56	Z56	X57	Y57	Z57	X58	Y58	Z58	X59	Y59	Z59	X60	Y60	Z60	X61	Y61	Z61	

1	0	-247.448226928711	1797.992065429688	-1087.860717773438	-403.3528137207032	1733.294677734375	-1160.881591796875	-422.6302795410157	1731.38232421875	-1021.802917480469	-439.8468322753907	1558.656616210938	-1077.137817382813	-434.2257080078126	1226.396728515625	-1068.192749023438	-290.6743164062501	1515.484741210938	-1083.8408203125	-374.7353820800782	1555.58056640625	-1236.130615234375	-251.6628112792969	1416.037475585938	-1377.753295898438	-214.6129913330079	1447.723754882813	-1373.7685546875	-187.4971771240235	1400.592407226563	-1399.616943359375	-130.8721160888672	1398.300537109375	-1407.24462890625	-128.9033355712891	1334.716674804688	-1359.2822265625	135.7664794921875	1402.224487304688	-1361.969360351563	138.6388397216797	1363.234008789063	-1431.130981445313	223.6503448486329	1412.039428710938	-1390.631469726563	-356.3554687500001	1558.36083984375	-929.2774047851565	-212.3843078613282	1425.595581054688	-797.9983520507815	-173.5548400878907	1453.630126953125	-805.623229980469	-146.649658203125	1403.066650390625	-784.138854980469	-103.3151779174805	1393.395263671875	-784.5298461914065	-109.9042434692383	1339.07080078125	-837.5366821289065	167.6085357666016	1422.505126953125	-872.5928344726565	164.6537017822266	1381.152709960938	-804.4046020507815	246.4327392578126	1439.502319335938	-854.034851074219	-223.455062866211	1065.170532226563	-1168.359252929688	-238.1733856201172	1099.977661132813	-920.520690917969	-426.2938842773439	1138.859008789063	-1055.910034179688	-425.757537841797	1104.281127929688	-1079.153198242188	-430.4383850097657	1109.240356445313	-1022.959228515625	-302.5378417968751	812.8413085937502	-1221.040893554688	-268.0882873535157	735.0465698242189	-1210.943237304688	-221.7116088867188	740.2450561523439	-1206.649658203125	-296.6768798828126	683.9388427734376	-1190.19873046875	-295.0800170898438	531.5756225585939	-1156.830078125	-263.6570129394532	539.7860717773439	-1021.507873535156	-255.4900512695313	371.6045837402344	-1089.410400390625	-306.0764160156251	320.5415344238282	-1139.637329101563	-267.3330078125001	319.9536132812501	-1115.828857421875	-275.6610107421876	246.8204193115235	-1074.0595703125	-338.8853759765626	113.6830291748047	-1097.9296875	-307.4836120605469	135.5052185058594	-1009.152770996094	-408.1047668457032	106.1993408203125	-1037.688720703125	-198.1810302734376	55.52585601806642	-1018.309204101563	-189.212875366211	53.90793609619142	-1067.471923828125	-242.9403839111329	39.58011627197266	-1117.9921875	-151.3778839111328	822.2283935546877	-839.1699218750002	-89.10324859619142	800.2320556640627	-850.1470336914065	-64.43655395507814	819.344421386719	-861.5388183593752	-68.83148193359376	720.5208740234376	-865.0935058593752	-35.92093658447266	635.6439208984376	-872.4478149414065	-9.953766822814943	660.8082275390626	-1006.073852539063	50.6285743713379	555.3321533203126	-886.8931274414065	13.51935768127442	461.560028076172	-852.5960693359377	57.73882293701173	470.635467529297	-865.759460449219	87.78146362304689	429.7261352539064	-892.8130493164065	95.84655761718751	245.6999969482422	-876.3479614257815	127.9822769165039	271.6479187011719	-963.4101562500002	47.73078918457032	198.3935089111329	-936.2332153320315	267.2803344726563	227.9090118408204	-942.3548583984377	269.8029174804688	236.3691558837891	-895.1243896484377	225.3061523437501	207.9205932617188	-848.0430908203127	
2	0.005	-247.3200988769532	1797.9716796875	-1087.711181640625	-403.1701049804689	1733.336669921875	-1160.831420898438	-422.5538024902345	1731.435668945313	-1021.80224609375	-439.8121337890626	1558.715576171875	-1077.125244140625	-434.2465209960939	1226.45654296875	-1068.197509765625	-290.6268615722657	1515.448974609375	-1083.75927734375	-374.6173706054688	1555.601440429688	-1236.124267578125	-251.6360778808594	1416.051635742188	-1377.69873046875	-214.5630340576172	1447.726684570313	-1373.777587890625	-187.4322204589844	1400.630981445313	-1399.551025390625	-130.782211303711	1398.34765625	-1407.235717773438	-128.8712463378907	1334.759887695313	-1359.194702148438	135.8244018554688	1402.265502929688	-1362.064697265625	138.2380981445313	1363.543334960938	-1431.141479492188	223.7030181884766	1412.066772460938	-1390.802734375	-356.3534240722657	1558.342041015625	-929.2410278320315	-212.4070434570313	1425.544311523438	-797.969909667969	-173.6092071533203	1453.560180664063	-805.5771484375002	-146.7296905517578	1402.951171875	-784.0788574218752	-103.436882019043	1393.284301757813	-784.3836059570315	-109.9161529541016	1339.040649414063	-837.550231933594	167.5826263427735	1422.288208007813	-872.4949951171877	164.5436096191407	1380.900634765625	-804.2793579101565	246.3850555419922	1439.365234375	-853.9484863281252	-223.5400543212891	1065.185180664063	-1168.365966796875	-238.1853790283204	1099.931884765625	-920.587097167969	-426.1296386718751	1138.925048828125	-1056.035034179688	-425.9361877441407	1104.345825195313	-1079.152465820313	-430.477264404297	1109.316284179688	-1023.012329101563	-302.6756591796876	812.8526000976565	-1221.066650390625	-268.2265930175782	735.0382080078126	-1210.939819335938	-221.8305206298829	740.2631225585939	-1206.691772460938	-296.8318176269532	683.9115600585939	-1190.164794921875	-295.2530517578126	531.5803833007814	-1156.797973632813	-263.7652893066407	539.8028564453126	-1021.542114257813	-255.6944580078126	371.6061401367188	-1089.286865234375	-306.1251220703126	320.5374450683594	-1139.651977539063	-267.3414611816407	319.9519653320313	-1115.817626953125	-275.6643676757813	246.8382720947266	-1074.024780273438	-338.9091796875001	113.6875228881836	-1097.903442382813	-307.4953613281251	135.5198974609375	-1009.109191894531	-408.0591430664064	106.1835861206055	-1037.65673828125	-198.1710968017579	55.51643371582033	-1018.364929199219	-189.2008056640625	53.99343872070314	-1067.49462890625	-242.9641113281251	39.59580612182618	-1117.970581054688	-151.7124481201172	822.2256469726565	-839.097351074219	-89.20919036865236	800.2037353515627	-850.1348266601565	-64.63698577880861	819.3100585937502	-861.515075683594	-68.94774627685548	720.4172973632814	-865.095886230469	-36.08776855468751	635.6013793945314	-872.4428710937502	-10.13720512390137	660.7182006835939	-1006.083557128906	50.37504959106447	555.2611083984376	-886.8291625976565	13.31170654296875	461.5496520996095	-852.559997558594	57.6548309326172	470.5845642089845	-865.8167724609377	87.63732147216798	429.6285705566407	-892.7559204101565	95.68584442138673	245.6822662353516	-876.3563232421877	127.7825927734375	271.5595703125001	-963.3814697265627	47.49202346801759	198.4254760742188	-936.2125244140627	267.2280273437501	227.9398651123047	-942.2295532226565	269.6610717773438	236.3932647705079	-895.0171508789065	224.9893341064454	207.9566955566407	-847.8240356445315	
3	0.01	-247.189193725586	1797.950927734375	-1087.578125	-403.0802001953126	1733.418090820313	-1160.804565429688	-422.489959716797	1731.520629882813	-1021.798767089844	-439.7771911621095	1558.775268554688	-1077.082763671875	-434.3696289062501	1226.487182617188	-1068.228637695313	-290.5928039550782	1515.484497070313	-1083.700073242188	-374.3074340820313	1555.510375976563	-1236.03173828125	-251.6282043457032	1416.052612304688	-1377.6328125	-214.4715118408204	1447.756225585938	-1373.752075195313	-187.347640991211	1400.686645507813	-1399.511352539063	-130.7241973876953	1398.375854492188	-1407.186767578125	-128.7667541503907	1334.810424804688	-1359.085571289063	135.9901275634766	1402.31689453125	-1362.125122070313	137.9936981201172	1363.554321289063	-1431.198120117188	223.7414093017579	1411.961791992188	-1390.946411132813	-356.3474121093751	1558.346435546875	-929.1569824218752	-212.425277709961	1425.470581054688	-797.8952636718752	-173.6279754638672	1453.50048828125	-805.5237426757815	-146.8521423339844	1402.788452148438	-783.9442138671877	-103.5282669067383	1393.145874023438	-784.2683715820315	-110.103271484375	1338.849609375	-837.438659667969	167.4816589355469	1422.139404296875	-872.3623657226565	164.4498748779297	1380.713989257813	-804.158630371094	246.2168731689454	1439.103393554688	-853.8174438476565	-223.6175537109376	1065.171630859375	-1168.392456054688	-238.2998352050782	1099.982543945313	-920.5818481445315	-426.2065429687501	1139.017944335938	-1056.002197265625	-425.9468383789064	1104.397705078125	-1079.173217773438	-430.5412597656251	1109.422607421875	-1022.992004394531	-302.7595825195313	812.832946777344	-1221.077026367188	-268.3086242675782	735.0485229492189	-1210.913452148438	-221.7516632080079	740.2526245117189	-1206.80908203125	-296.9817810058594	683.9283447265626	-1190.210083007813	-295.4132995605469	531.5484008789064	-1156.782470703125	-264.0077819824219	539.7957153320314	-1021.479736328125	-255.7166595458985	371.6338195800782	-1089.279052734375	-306.2212524414063	320.5286865234376	-1139.600952148438	-267.3630676269532	319.9718017578126	-1115.7890625	-275.7946166992188	246.832748413086	-1073.953002929688	-338.9197692871094	113.7168884277344	-1097.859008789063	-307.5036315917969	135.5099487304688	-1009.081604003906	-408.1227111816407	106.1924514770508	-1037.645874023438	-198.2209777832032	55.50947189331056	-1018.311706542969	-189.2242584228516	53.96263885498048	-1067.498168945313	-242.7663726806641	39.36016464233399	-1118.038330078125	-151.9821319580078	822.1729125976565	-838.9908447265627	-89.3918914794922	800.1597900390627	-850.1221313476565	-64.8187942504883	819.2498779296877	-861.4566040039065	-69.14626312255861	720.3851928710939	-865.0731201171877	-36.18038940429688	635.5165405273439	-872.4743652343752	-11.47681999206543	660.4804077148439	-1006.126281738281	50.20679473876955	555.1824951171876	-886.8305664062502	13.10327434539795	461.511688232422	-852.5509033203127	57.41289138793947	470.4976501464845	-865.7692871093752	87.40244293212892	429.4075622558595	-892.6130371093752	95.46794891357423	245.6828918457032	-876.3232421875002	127.6940231323242	271.5549621582032	-963.3668212890627	47.27811431884766	198.4712219238282	-936.2039794921877	267.1458129882813	227.8913726806641	-942.1916503906252	269.3786926269532	236.3246002197266	-894.764831542969	224.7371520996094	207.9039611816407	-847.661560058594	
4	0.015	-247.0642242431641	1797.8134765625	-1087.56396484375	-402.9382324218751	1733.45556640625	-1160.779907226563	-422.3292541503907	1731.635131835938	-1021.761474609375	-439.675262451172	1558.811889648438	-1077.079833984375	-434.3981933593751	1226.56396484375	-1068.227661132813	-290.5550842285157	1515.492797851563	-1083.634033203125	-374.5141296386719	1555.696044921875	-1236.04296875	-251.3996734619141	1416.117797851563	-1377.6474609375	-214.4664001464844	1447.8232421875	-1373.720825195313	-187.3089141845703	1400.713134765625	-1399.44873046875	-130.7081909179688	1398.445190429688	-1407.132202148438	-128.686767578125	1334.877319335938	-1359.034912109375	136.0793914794922	1402.36962890625	-1362.164184570313	138.6934814453125	1363.288940429688	-1431.266479492188	223.028793334961	1412.40478515625	-1391.15087890625	-356.3474121093751	1558.346435546875	-929.1570434570315	-212.4360351562501	1425.435913085938	-797.8643798828127	-173.6007690429688	1453.386962890625	-805.5249023437502	-146.9051818847657	1402.7197265625	-783.906433105469	-103.6442337036133	1393.024536132813	-784.1929931640627	-110.1586837768555	1338.713134765625	-837.3093872070315	167.4467010498047	1421.957397460938	-872.2602539062502	164.4337310791016	1380.591796875	-804.091003417969	246.1244354248047	1438.947387695313	-853.6690673828127	-223.7656555175782	1065.182373046875	-1168.431030273438	-238.5023498535157	1099.970336914063	-920.5332031250002	-426.211151123047	1139.084716796875	-1056.010131835938	-426.0355834960939	1104.514892578125	-1079.1396484375	-430.6245117187501	1109.497314453125	-1023.048706054688	-302.9345703125001	812.8635253906252	-1221.062744140625	-268.4843444824219	735.0604248046876	-1210.942260742188	-222.0695953369141	740.2882080078126	-1206.703857421875	-297.1662292480469	683.9275512695314	-1190.127319335938	-295.5950622558594	531.5724487304689	-1156.738403320313	-264.1966552734376	539.8375244140626	-1021.45556640625	-255.7993164062501	371.6854553222657	-1089.289306640625	-306.2570190429688	320.5515136718751	-1139.577392578125	-267.3669738769532	319.9944763183594	-1115.714477539063	-275.8554687500001	246.9157409667969	-1073.928466796875	-338.9170837402344	113.7026824951172	-1097.874267578125	-307.5355834960938	135.5131378173828	-1009.043579101563	-408.1183471679689	106.1424865722657	-1037.661743164063	-198.2344818115235	55.4932098388672	-1018.304931640625	-189.1946258544922	53.98105239868165	-1067.4970703125	-242.7544555664063	39.39518737792969	-1118.048217773438	-152.1050109863282	822.1209106445315	-839.0084228515627	-89.56277465820314	800.158142089844	-850.076110839844	-65.04082489013673	819.1668701171877	-861.4109497070315	-69.4068069458008	720.3479003906251	-865.0954589843752	-36.43312072753907	635.4315185546876	-872.4105224609377	-11.72354888916016	660.3831787109376	-1006.113464355469	50.05902481079103	555.0971679687501	-886.8535156250002	12.94384765625	461.4558105468751	-852.5550537109377	57.22468566894533	470.4559936523439	-865.7028808593752	87.26334381103517	429.633270263672	-892.711853027344	95.23119354248048	245.6379394531251	-876.2711181640627	127.4983291625977	271.5022277832032	-963.3140869140627	47.13660049438477	198.3325958251954	-936.154235839844	267.0451049804688	227.9599151611329	-942.039001464844	269.3026428222657	236.3725585937501	-894.6345825195315	224.3952789306641	207.937240600586	-847.4887695312502	
